<?xml version="1.0" encoding="UTF-8" standalone="no"?>
<svg
   xmlns:dc="http://purl.org/dc/elements/1.1/"
   xmlns:cc="http://creativecommons.org/ns#"
   xmlns:rdf="http://www.w3.org/1999/02/22-rdf-syntax-ns#"
   xmlns:svg="http://www.w3.org/2000/svg"
   xmlns="http://www.w3.org/2000/svg"
   xmlns:sodipodi="http://sodipodi.sourceforge.net/DTD/sodipodi-0.dtd"
   xmlns:inkscape="http://www.inkscape.org/namespaces/inkscape"
   width="114mm"
   height="90mm"
   viewBox="0 0 114 90"
   version="1.1"
   id="svg862"
   inkscape:version="1.0.1 (3bc2e813f5, 2020-09-07)"
   sodipodi:docname="HDlogo2.svg">
  <defs
     id="defs856">
    <clipPath
       clipPathUnits="userSpaceOnUse"
       id="clipPath3039">
      <path
         id="path3041"
         style="font-variation-settings:normal;opacity:1;vector-effect:none;fill:#f9f9f9;fill-opacity:1;stroke:none;stroke-width:0.0998698;stroke-linecap:butt;stroke-linejoin:round;stroke-miterlimit:4;stroke-dasharray:none;stroke-dashoffset:0;stroke-opacity:1;paint-order:fill markers stroke;stop-color:#000000;stop-opacity:1"
         d="m 21.341456,-21.33685 v -3.248321 h 14.192863 v 3.209347 c -0.0049,-3.72e-4 -0.0084,-0.0026 -0.01362,-0.0026 h -0.07845 c -0.04662,0 -0.08118,0.01741 -0.107843,0.04162 z" />
    </clipPath>
    <clipPath
       clipPathUnits="userSpaceOnUse"
       id="clipPath3061">
      <path
         id="path3063"
         style="font-variation-settings:normal;opacity:1;vector-effect:none;fill:#f9f9f9;fill-opacity:1;stroke:none;stroke-width:0.0998698;stroke-linecap:butt;stroke-linejoin:round;stroke-miterlimit:4;stroke-dasharray:none;stroke-dashoffset:0;stroke-opacity:1;paint-order:fill markers stroke;stop-color:#000000;stop-opacity:1"
         d="M 36.557202,27.334106 V 66.573229 H 52.591385 V 27.334106 H 38.444988 c 0.01553,0.09631 -0.03542,0.203849 -0.157982,0.193545 -0.08732,-0.0073 -0.218471,0.04798 -0.280521,-0.09116 -0.0014,-0.0032 -0.0019,-0.0072 -0.003,-0.01057 -0.05773,0.0129 -0.08109,0.01056 -0.105465,-0.01717 -0.02305,0.01318 -0.04944,0.02279 -0.08256,0.02279 h -0.168788 c -0.07714,0 -0.125534,-0.04297 -0.14804,-0.09743 z" />
    </clipPath>
    <clipPath
       clipPathUnits="userSpaceOnUse"
       id="clipPath3071">
      <path
         id="path3073"
         style="font-variation-settings:normal;opacity:1;vector-effect:none;fill:#f9f9f9;fill-opacity:1;stroke:none;stroke-width:0.0998698;stroke-linecap:butt;stroke-linejoin:round;stroke-miterlimit:4;stroke-dasharray:none;stroke-dashoffset:0;stroke-opacity:1;paint-order:fill markers stroke;stop-color:#000000;stop-opacity:1"
         d="m 26.185728,27.347317 v 3.366892 h 11.739497 v -3.284321 c -0.01002,-0.0037 -0.01855,-0.01121 -0.02723,-0.02114 -0.02305,0.01318 -0.04944,0.02279 -0.08256,0.02279 H 37.64665 c -0.07053,0 -0.115833,-0.03656 -0.140692,-0.08422 z" />
    </clipPath>
    <clipPath
       clipPathUnits="userSpaceOnUse"
       id="clipPath3151">
      <path
         id="path3153"
         style="font-variation-settings:normal;opacity:1;vector-effect:none;fill:#f9f9f9;fill-opacity:1;stroke:none;stroke-width:0.0998698;stroke-linecap:butt;stroke-linejoin:round;stroke-miterlimit:4;stroke-dasharray:none;stroke-dashoffset:0;stroke-opacity:1;paint-order:fill markers stroke;stop-color:#000000;stop-opacity:1"
         d="m 21.178719,69.672262 v 3.080207 h 14.058006 c 0.0047,-3.39e-4 0.01053,-5.08e-4 0.01426,-6.77e-4 9.96e-4,-3.9e-5 0.0015,6.77e-4 0.0024,6.77e-4 h 0.154956 v -3.080207 z" />
    </clipPath>
    <clipPath
       clipPathUnits="userSpaceOnUse"
       id="clipPath3185">
      <path
         id="path3187"
         style="font-variation-settings:normal;opacity:1;vector-effect:none;fill:#f9f9f9;fill-opacity:1;stroke:none;stroke-width:0.0998698;stroke-linecap:butt;stroke-linejoin:round;stroke-miterlimit:4;stroke-dasharray:none;stroke-dashoffset:0;stroke-opacity:1;paint-order:fill markers stroke;stop-color:#000000;stop-opacity:1"
         d="m 34.788929,21.367897 v 51.472097 h 0.37518 c -0.0288,-0.02901 -0.02171,-0.07964 0.01405,-0.08191 0.0054,-3.38e-4 0.01159,0.0012 0.01815,0.0033 0.0071,-0.0048 0.01541,-0.0084 0.02637,-0.0083 0.01171,1.69e-4 0.02092,-8.45e-4 0.02831,-0.0014 0.01094,-5.07e-4 0.01741,0.0046 0.02269,0.01584 0.0058,-6.76e-4 0.0115,-0.0015 0.0175,-10e-4 0.0082,0.0012 0.01646,3.38e-4 0.02464,3.38e-4 0.0079,0 0.01229,0.0032 0.01642,0.0086 0.0051,3.39e-4 0.01077,0.002 0.01686,0.0053 9.96e-4,0 0.002,-10e-7 0.003,0 0.009,-8e-6 0.01801,-10e-7 0.02701,0 0.01,4e-6 0.01473,0.0044 0.0201,0.01387 0.0023,-6.9e-5 0.0046,2.5e-5 0.0069,0 0.0013,0 0.0024,2e-6 0.0037,0 0.0016,0 0.0028,8.46e-4 0.0043,0.001 0.0036,-1.69e-4 0.0072,-6.77e-4 0.01081,-6.77e-4 0.0088,-1.69e-4 0.01774,-3.38e-4 0.02658,-3.38e-4 0.009,7.3e-5 0.01803,7e-6 0.02701,0 0.009,2e-6 0.01819,2e-6 0.02723,0 h 0.01253 c 0.03,0 0.0452,0.02212 0.04646,0.04525 h 22.772568 v -51.47197 h -22.76451 c -0.01622,0.0051 -0.03226,0.01057 -0.05208,0.01057 h -0.07845 c -0.01983,0 -0.0359,-0.0055 -0.05208,-0.01057 z m 2.824655,4.983621 c 0.04346,0.0017 0.0931,0.05092 0.12751,0.16415 0.03379,0.111199 0.07842,0.21784 0.130966,0.310795 0.0042,0.0075 0.0094,0.01355 0.01405,0.02048 0.01155,-0.0058 0.02328,-0.01085 0.03501,-0.01321 0.01269,-0.0026 0.02245,0.01038 0.03177,0.02642 0.03177,-0.0072 0.06334,-0.0061 0.09552,-0.0046 0.03034,5.08e-4 0.06063,-3.55e-4 0.09099,-3.38e-4 0.02509,1.69e-4 0.05012,3.5e-5 0.07521,0 0.217835,-3.04e-4 0.218017,0.335923 2.21e-4,0.336227 h 0.07218 c 0.217835,0 0.217507,0.354512 0,0.336227 -0.08732,-0.0073 -0.218464,0.04798 -0.280521,-0.09116 -0.0014,-0.0032 -0.0019,-0.0072 -0.003,-0.01057 -0.05773,0.0129 -0.08109,0.0106 -0.105465,-0.01718 -0.02305,0.01318 -0.04944,0.02279 -0.08256,0.02279 h -0.168787 c -0.16718,0 -0.204835,-0.196894 -0.115407,-0.288997 -0.0023,-0.0051 -0.0037,-0.0075 -0.0061,-0.01288 -0.01089,-0.02468 -0.0093,-0.112278 0.003,-0.08918 0.01305,0.0246 0.01786,0.05607 0.02161,0.08818 0.01942,-0.01455 0.04307,-0.024 0.07132,-0.02807 -0.04795,-0.105915 -0.106538,-0.228322 -0.03998,-0.220298 0.0085,9.98e-4 0.01912,0.0045 0.0322,0.01024 0.0069,0.0031 0.01383,0.0062 0.02075,0.0092 -0.03359,-0.07481 -0.06451,-0.152509 -0.08991,-0.23351 -0.05869,-0.18774 -0.0031,-0.317557 0.06937,-0.314758 z m 0.207689,0.509294 c -0.0968,0.154566 -0.04731,0.06418 0.0309,0.0073 -0.01028,-0.0025 -0.02062,-0.0048 -0.0309,-0.0073 z m 0.191696,0.332263 c 0.0043,0.01843 0.0078,0.03755 0.01405,0.05417 0.0046,0.01235 -0.0021,-0.02846 -0.0032,-0.04261 -0.0082,-0.0091 -0.0037,-0.0038 -0.01081,-0.01156 z" />
    </clipPath>
  </defs>
  <sodipodi:namedview
     id="base"
     pagecolor="#ffffff"
     bordercolor="#666666"
     borderopacity="1.0"
     inkscape:pageopacity="0.0"
     inkscape:pageshadow="2"
     inkscape:zoom="0.33589188"
     inkscape:cx="234.28954"
     inkscape:cy="183.51395"
     inkscape:document-units="mm"
     inkscape:current-layer="svg862"
     inkscape:document-rotation="0"
     showgrid="false"
     showguides="false"
     inkscape:pagecheckerboard="true"
     inkscape:window-width="1366"
     inkscape:window-height="705"
     inkscape:window-x="-8"
     inkscape:window-y="-8"
     inkscape:window-maximized="1" />
  <metadata
     id="metadata859">
    <rdf:RDF>
      <cc:Work
         rdf:about="">
        <dc:format>image/svg+xml</dc:format>
        <dc:type
           rdf:resource="http://purl.org/dc/dcmitype/StillImage" />
        <dc:title></dc:title>
      </cc:Work>
    </rdf:RDF>
  </metadata>
  <g
     inkscape:label="Layer 1"
     inkscape:groupmode="layer"
     id="layer1">
    <text
       xml:space="preserve"
       style="font-size:10.5833px;line-height:1.25;font-family:'The Font Gatsby';-inkscape-font-specification:'The Font Gatsby';stroke-width:0.264583;fill:#ffffff;"
       x="26.656523"
       y="64.015297"
       id="text1437"><tspan
         sodipodi:role="line"
         id="tspan1435"
         x="26.656523"
         y="64.015297"
         style="stroke-width:0.264583;fill:#ffffff;" /></text>
    <text
       xml:space="preserve"
       style="font-size:10.5833px;line-height:1.25;font-family:'The Font Gatsby';-inkscape-font-specification:'The Font Gatsby';stroke-width:0.264583"
       x="52.322098"
       y="63.519817"
       id="text1467"><tspan
         sodipodi:role="line"
         id="tspan1465"
         x="52.322098"
         y="63.519817"
         style="stroke-width:0.264583" /></text>
    <text
       xml:space="preserve"
       style="font-size:10.5833px;line-height:1.25;font-family:'The Font Gatsby';-inkscape-font-specification:'The Font Gatsby';fill:#ffffff;stroke-width:0.264583"
       x="49.151062"
       y="70.753746"
       id="text1471"><tspan
         sodipodi:role="line"
         id="tspan1469"
         x="49.151062"
         y="70.753746"
         style="fill:#ffffff;stroke-width:0.264583" /></text>
    <text
       xml:space="preserve"
       style="font-weight:bold;font-size:10.2219px;line-height:1.25;font-family:'Franklin Gothic Demi Cond';-inkscape-font-specification:'Franklin Gothic Demi Cond Bold';stroke-width:0.638869"
       x="51.426105"
       y="117.34069"
       id="text1598"
       transform="scale(1.5381474,0.65013277)"><tspan
         sodipodi:role="line"
         id="tspan1596"
         x="51.426105"
         y="117.34069"
         style="font-style:normal;font-variant:normal;font-weight:normal;font-stretch:condensed;font-size:18.7402px;font-family:'Franklin Gothic Demi Cond';-inkscape-font-specification:'Franklin Gothic Demi Cond Condensed';stroke-width:0.638869" /></text>
    <text
       xml:space="preserve"
       style="font-style:normal;font-variant:normal;font-weight:normal;font-stretch:normal;font-size:15.1257px;line-height:1.25;font-family:'Franklin Gothic Medium';-inkscape-font-specification:'Franklin Gothic Medium, ';fill:#000000;stroke-width:0.378145;"
       x="53.910263"
       y="72.77224"
       id="text1429-8"
       transform="scale(0.81265275,1.2305379)"><tspan
         sodipodi:role="line"
         id="tspan1427-1"
         x="53.910263"
         y="72.77224"
         style="font-style:normal;font-variant:normal;font-weight:normal;font-stretch:normal;font-family:'Franklin Gothic Medium';-inkscape-font-specification:'Franklin Gothic Medium, ';fill:#000000;stroke-width:0.378145;" /></text>
  </g>
  <g
     id="g2867"
     transform="matrix(2.3911277,0,0,1.5646167,-27.771101,-27.398311)">
    <path
       id="path2541"
       style="fill:none;fill-opacity:1;stroke:#000000;stroke-width:3.1;stroke-linejoin:miter;stroke-miterlimit:4;stroke-dasharray:none;stroke-opacity:1;paint-order:fill markers stroke"
       d="m 35.013482,22.901518 a 25.665939,24.485625 0 0 1 21.773795,24.202444 v 0 A 25.665939,24.485625 0 0 1 35.013408,71.306416"
       clip-path="url(#clipPath3185)" />
    <path
       id="path2578"
       style="fill:none;fill-opacity:1;stroke:#000000;stroke-width:3.0103;stroke-linejoin:miter;stroke-miterlimit:4;stroke-dasharray:none;stroke-opacity:1;paint-order:fill markers stroke"
       d="m 37.120166,28.730189 a 25.260695,20.373415 0 0 1 13.966051,18.223458 v 0 A 25.260695,20.373415 0 0 1 37.120094,65.177128"
       clip-path="url(#clipPath3061)" />
    <rect
       style="fill:none;fill-opacity:1;stroke:#000000;stroke-width:2.002;stroke-linejoin:miter;stroke-miterlimit:4;stroke-dasharray:none;stroke-opacity:1;paint-order:fill markers stroke"
       id="rect2581"
       width="9.7610931"
       height="0.89682132"
       x="26.915285"
       y="-65.563126"
       transform="scale(1,-1)" />
    <rect
       style="fill:none;fill-opacity:1;stroke:#000000;stroke-width:2.37143;stroke-linejoin:miter;stroke-miterlimit:4;stroke-dasharray:none;stroke-opacity:1;paint-order:fill markers stroke"
       id="rect2581-2"
       width="11.858038"
       height="0.70892781"
       x="22.364521"
       y="70.857857"
       clip-path="url(#clipPath3151)" />
    <rect
       style="fill:none;fill-opacity:1;stroke:#000000;stroke-width:2.658;stroke-linejoin:miter;stroke-miterlimit:4;stroke-dasharray:none;stroke-opacity:1;paint-order:fill markers stroke"
       id="rect2581-2-7"
       width="9.081522"
       height="0.70892781"
       x="27.514717"
       y="28.67617"
       clip-path="url(#clipPath3071)" />
    <rect
       style="fill:none;fill-opacity:1;stroke:#000000;stroke-width:2.345;stroke-linejoin:miter;stroke-miterlimit:4;stroke-dasharray:none;stroke-opacity:1;paint-order:fill markers stroke"
       id="rect2581-1"
       width="11.84792"
       height="0.90330112"
       x="22.513893"
       y="-23.412645"
       transform="scale(1,-1)"
       clip-path="url(#clipPath3039)" />
    <rect
       style="fill:none;fill-opacity:1;stroke:#000000;stroke-width:2.26698;stroke-linejoin:miter;stroke-miterlimit:4;stroke-dasharray:none;stroke-opacity:1;paint-order:fill markers stroke"
       id="rect2581-1-7"
       width="9.3984489"
       height="0.90330112"
       x="22.066973"
       y="-44.592533"
       transform="scale(1,-1)" />
    <rect
       style="fill:none;fill-opacity:1;stroke:#000000;stroke-width:2.24656;stroke-linejoin:miter;stroke-miterlimit:4;stroke-dasharray:none;stroke-opacity:1;paint-order:fill markers stroke"
       id="rect2581-1-7-1"
       width="9.0259199"
       height="0.92371768"
       x="22.010864"
       y="-50.103981"
       transform="scale(1,-1)" />
    <rect
       style="fill:none;fill-opacity:1;stroke:#000000;stroke-width:2.22324;stroke-linejoin:miter;stroke-miterlimit:4;stroke-dasharray:none;stroke-opacity:1;paint-order:fill markers stroke"
       id="rect2581-1-7-3"
       width="8.6576128"
       height="0.94311982"
       x="48.872593"
       y="31.085114"
       transform="matrix(-0.01197433,0.99992831,0.99995656,0.00932082,0,0)" />
    <rect
       style="fill:none;fill-opacity:1;stroke:#000000;stroke-width:2.22324;stroke-linejoin:miter;stroke-miterlimit:4;stroke-dasharray:none;stroke-opacity:1;paint-order:fill markers stroke"
       id="rect2581-1-7-3-7"
       width="8.6576128"
       height="0.94311982"
       x="48.983253"
       y="22.608597"
       transform="matrix(-0.01197433,0.99992831,0.99995656,0.00932082,0,0)" />
    <rect
       style="fill:none;fill-opacity:1;stroke:#000000;stroke-width:2.22324;stroke-linejoin:miter;stroke-miterlimit:4;stroke-dasharray:none;stroke-opacity:1;paint-order:fill markers stroke"
       id="rect2581-1-7-3-5"
       width="8.6576128"
       height="0.94311982"
       x="35.639858"
       y="31.054125"
       transform="matrix(-0.01197433,0.99992831,0.99995656,0.00932082,0,0)" />
    <rect
       style="fill:none;fill-opacity:1;stroke:#000000;stroke-width:2.22324;stroke-linejoin:miter;stroke-miterlimit:4;stroke-dasharray:none;stroke-opacity:1;paint-order:fill markers stroke"
       id="rect2581-1-7-3-0"
       width="8.6576128"
       height="0.94311982"
       x="35.727459"
       y="22.599436"
       transform="matrix(-0.01197433,0.99992831,0.99995656,0.00932082,0,0)" />
    <rect
       style="fill:none;fill-opacity:1;stroke:#000000;stroke-width:2.45883;stroke-linejoin:miter;stroke-miterlimit:4;stroke-dasharray:none;stroke-opacity:1;paint-order:fill markers stroke"
       id="rect2581-1-7-3-9"
       width="9.4964762"
       height="1.0516914"
       x="22.366743"
       y="22.678555"
       transform="matrix(-0.01217332,0.9999259,0.99995797,0.00916844,0,0)" />
    <rect
       style="fill:none;fill-opacity:1;stroke:#000000;stroke-width:2.69753;stroke-linejoin:miter;stroke-miterlimit:4;stroke-dasharray:none;stroke-opacity:1;paint-order:fill markers stroke"
       id="rect2581-1-7-3-96"
       width="21.706249"
       height="0.55378413"
       x="34.653755"
       y="36.161476"
       transform="matrix(-0.00280229,0.99999607,0.99920762,0.03980124,0,0)"
       inkscape:transform-center-x="-1.8444671"
       inkscape:transform-center-y="-35.469162" />
    <rect
       style="fill:none;fill-opacity:1;stroke:#000000;stroke-width:2.70489;stroke-linejoin:miter;stroke-miterlimit:4;stroke-dasharray:none;stroke-opacity:1;paint-order:fill markers stroke"
       id="rect2581-1-7-3-96-1"
       width="21.553345"
       height="0.56075799"
       x="35.515079"
       y="17.154802"
       transform="matrix(-0.00285779,0.99999592,0.99923806,0.03902937,0,0)"
       inkscape:transform-center-x="-1.8677521"
       inkscape:transform-center-y="-35.219303" />
    <rect
       style="fill:none;fill-opacity:1;stroke:#000000;stroke-width:2.31584;stroke-linejoin:miter;stroke-miterlimit:4;stroke-dasharray:none;stroke-opacity:1;paint-order:fill markers stroke"
       id="rect2581-1-7-3-96-6"
       width="9.6002932"
       height="0.92283636"
       x="22.233738"
       y="17.245802"
       transform="matrix(-0.01056617,0.99994418,0.99994421,0.01056306,0,0)"
       inkscape:transform-center-x="-3.075921"
       inkscape:transform-center-y="-15.686573" />
    <rect
       style="fill:none;fill-opacity:1;stroke:#000000;stroke-width:2.30408;stroke-linejoin:miter;stroke-miterlimit:4;stroke-dasharray:none;stroke-opacity:1;paint-order:fill markers stroke"
       id="rect2581-1-7-3-96-6-3"
       width="9.5691996"
       height="0.91646206"
       x="62.011372"
       y="17.666553"
       transform="matrix(-0.01052728,0.99994459,0.9999438,0.01060208,0,0)"
       inkscape:transform-center-x="-3.0546716"
       inkscape:transform-center-y="-15.635776" />
    <rect
       style="fill:none;fill-opacity:1;stroke:#000000;stroke-width:2.29708;stroke-linejoin:miter;stroke-miterlimit:4;stroke-dasharray:none;stroke-opacity:1;paint-order:fill markers stroke"
       id="rect2581-1-7-3-96-6-8"
       width="9.4454308"
       height="0.92283475"
       x="61.888405"
       y="22.834276"
       transform="matrix(-0.01073941,0.99994233,0.99994599,0.01039266,0,0)"
       inkscape:transform-center-x="-3.0759199"
       inkscape:transform-center-y="-15.433505" />
  </g>
</svg>
