<?xml version="1.0" encoding="utf-8"?>
<!-- Generator: Adobe Illustrator 16.0.0, SVG Export Plug-In . SVG Version: 6.00 Build 0)  -->
<!DOCTYPE svg PUBLIC "-//W3C//DTD SVG 1.1//EN" "http://www.w3.org/Graphics/SVG/1.1/DTD/svg11.dtd">
<svg version="1.1" id="Layer_1" xmlns="http://www.w3.org/2000/svg" xmlns:xlink="http://www.w3.org/1999/xlink" x="0px" y="0px"
	 width="2800px" height="2800px" viewBox="0 0 2800 2800" enable-background="new 0 0 2800 2800" xml:space="preserve">
<g>
	<rect fill="#292727" width="2800" height="2800"/>
	<g>
		<g>
			<radialGradient id="SVGID_1_" cx="2521.9258" cy="359.6445" r="229.2788" gradientUnits="userSpaceOnUse">
				<stop  offset="0" style="stop-color:#DFD18D"/>
				<stop  offset="0.3817" style="stop-color:#CBA64B"/>
				<stop  offset="1" style="stop-color:#A27632"/>
			</radialGradient>
			<polygon fill="url(#SVGID_1_)" points="2344.6,625.5 2336.3,619.8 2699.3,93.8 2707.5,99.4 			"/>
			<radialGradient id="SVGID_2_" cx="278.0752" cy="359.6445" r="229.2794" gradientUnits="userSpaceOnUse">
				<stop  offset="0" style="stop-color:#DFD18D"/>
				<stop  offset="0.3817" style="stop-color:#CBA64B"/>
				<stop  offset="1" style="stop-color:#A27632"/>
			</radialGradient>
			<polygon fill="url(#SVGID_2_)" points="455.4,625.5 92.5,99.4 100.7,93.8 463.7,619.8 			"/>
			<radialGradient id="SVGID_3_" cx="2521.3809" cy="2437.127" r="231.369" gradientUnits="userSpaceOnUse">
				<stop  offset="0" style="stop-color:#DFD18D"/>
				<stop  offset="0.3817" style="stop-color:#CBA64B"/>
				<stop  offset="1" style="stop-color:#A27632"/>
			</radialGradient>
			<polygon fill="url(#SVGID_3_)" points="2699.3,2706.2 2335.2,2173.7 2343.5,2168 2707.5,2700.6 			"/>
			<radialGradient id="SVGID_4_" cx="278.0752" cy="2437.8652" r="230.7204" gradientUnits="userSpaceOnUse">
				<stop  offset="0" style="stop-color:#DFD18D"/>
				<stop  offset="0.3817" style="stop-color:#CBA64B"/>
				<stop  offset="1" style="stop-color:#A27632"/>
			</radialGradient>
			<polygon fill="url(#SVGID_4_)" points="100.7,2706.2 92.5,2700.6 455.4,2169.5 463.7,2175.2 			"/>
			<radialGradient id="SVGID_5_" cx="1400.0005" cy="1400" r="1377.0002" gradientUnits="userSpaceOnUse">
				<stop  offset="0" style="stop-color:#DFD18D"/>
				<stop  offset="0.7487" style="stop-color:#CBA64B"/>
			</radialGradient>
			<path fill="url(#SVGID_5_)" d="M2777,2777H23V23h2754V2777z M33,2767h2734V33H33V2767z"/>
			<radialGradient id="SVGID_6_" cx="1400" cy="1400" r="1313.4004" gradientUnits="userSpaceOnUse">
				<stop  offset="0" style="stop-color:#DFD18D"/>
				<stop  offset="0.7487" style="stop-color:#CBA64B"/>
			</radialGradient>
			<path fill="url(#SVGID_6_)" d="M2713.4,2713.4H86.6V86.6h2626.8V2713.4z M106.6,2693.4h2586.8V106.6H106.6V2693.4z"/>
		</g>
		<g>
			<g>
				<g>
					<radialGradient id="SVGID_7_" cx="919.3696" cy="965.1885" r="409.3328" gradientUnits="userSpaceOnUse">
						<stop  offset="0" style="stop-color:#DFD18D"/>
						<stop  offset="0.3817" style="stop-color:#CBA64B"/>
						<stop  offset="1" style="stop-color:#A27632"/>
					</radialGradient>
					<polygon fill="url(#SVGID_7_)" points="475.6,1324.7 465.6,1324.7 465.6,813.5 673.5,605.7 1373.1,605.7 1373.1,615.7 
						677.6,615.7 475.6,817.7 					"/>
				</g>
				<g>
					<radialGradient id="SVGID_8_" cx="1010.5498" cy="607.6885" r="206.693" gradientUnits="userSpaceOnUse">
						<stop  offset="0" style="stop-color:#DFD18D"/>
						<stop  offset="0.3817" style="stop-color:#CBA64B"/>
						<stop  offset="1" style="stop-color:#A27632"/>
					</radialGradient>
					<path fill="url(#SVGID_8_)" d="M1298.5,657.7h-576v-100h576V657.7z M732.5,647.7h556v-80h-556V647.7z"/>
				</g>
				<g>
					<radialGradient id="SVGID_9_" cx="1067.0957" cy="612.0615" r="317.5409" gradientUnits="userSpaceOnUse">
						<stop  offset="0" style="stop-color:#DFD18D"/>
						<stop  offset="0.3817" style="stop-color:#CBA64B"/>
						<stop  offset="1" style="stop-color:#A27632"/>
					</radialGradient>
					<path fill="url(#SVGID_9_)" d="M1491.6,758.4h-179.1V639.7h-585v-10h585v-120h-612v40h-58v-50h48v-34h662v174h-30v108.7h159.1
						V504.7h10V758.4z M1322.5,629.7h20v-154h-642v24h622V629.7z M652.5,539.7h38v-30h-38V539.7z"/>
				</g>
				<g>
					<radialGradient id="SVGID_10_" cx="533.0142" cy="810.1885" r="238.6763" gradientUnits="userSpaceOnUse">
						<stop  offset="0" style="stop-color:#DFD18D"/>
						<stop  offset="0.3817" style="stop-color:#CBA64B"/>
						<stop  offset="1" style="stop-color:#A27632"/>
					</radialGradient>
					<path fill="url(#SVGID_10_)" d="M522.5,1115.7h-116V836.1h-17.1l17.1-17.1V715.7h103.3l37.3-37.3v-50.7h-16.6v45.2h-76v-55.2
						h66v-14.8h116.3l-79.7,79.7v43.1H514l-97.5,97.5v2.9h82.5l167.5-167.5V504.7h10v158.1L503.2,836.1h-86.7v269.6h16l-2-248.8h92
						V1115.7z M442.5,1105.7h70V866.9h-72L442.5,1105.7z M416.5,725.7V809l83.3-83.3H416.5z M524,715.7h23.1v-23.1L524,715.7z
						 M530.5,617.7h26.6v50.7l55.5-55.5h-82.1V617.7z M464.5,662.9h56v-35.2h-56V662.9z"/>
				</g>
				<g>
					<radialGradient id="SVGID_11_" cx="539.1821" cy="920.6885" r="312.796" gradientUnits="userSpaceOnUse">
						<stop  offset="0" style="stop-color:#DFD18D"/>
						<stop  offset="0.3817" style="stop-color:#CBA64B"/>
						<stop  offset="1" style="stop-color:#A27632"/>
					</radialGradient>
					<polygon fill="url(#SVGID_11_)" points="552.2,1326.7 363.5,1326.7 363.5,742.4 684.3,811.2 581.5,514.7 647.5,514.7 
						647.5,534.7 609.6,534.7 714.8,838.2 383.5,767.1 383.5,1306.7 552.2,1306.7 					"/>
				</g>
				<g>
					<radialGradient id="SVGID_12_" cx="886.9229" cy="1095.3408" r="468.6235" gradientUnits="userSpaceOnUse">
						<stop  offset="0" style="stop-color:#DFD18D"/>
						<stop  offset="0.3817" style="stop-color:#CBA64B"/>
						<stop  offset="1" style="stop-color:#A27632"/>
					</radialGradient>
					<polygon fill="url(#SVGID_12_)" points="562.2,1506 366.7,1324 380.4,1309.4 542.2,1460 542.2,845.5 703,684.7 1407.1,684.7 
						1407.1,704.7 711.3,704.7 562.2,853.8 					"/>
				</g>
			</g>
			<g>
				<g>
					<radialGradient id="SVGID_13_" cx="1880.6299" cy="1834.8115" r="409.3325" gradientUnits="userSpaceOnUse">
						<stop  offset="0" style="stop-color:#DFD18D"/>
						<stop  offset="0.3817" style="stop-color:#CBA64B"/>
						<stop  offset="1" style="stop-color:#A27632"/>
					</radialGradient>
					<polygon fill="url(#SVGID_13_)" points="2126.5,2194.3 1426.9,2194.3 1426.9,2184.3 2122.4,2184.3 2324.4,1982.3 
						2324.4,1475.3 2334.4,1475.3 2334.4,1986.5 2332.9,1987.9 					"/>
				</g>
				<g>
					<radialGradient id="SVGID_14_" cx="1789.4502" cy="2192.3115" r="206.693" gradientUnits="userSpaceOnUse">
						<stop  offset="0" style="stop-color:#DFD18D"/>
						<stop  offset="0.3817" style="stop-color:#CBA64B"/>
						<stop  offset="1" style="stop-color:#A27632"/>
					</radialGradient>
					<path fill="url(#SVGID_14_)" d="M2077.5,2242.3h-576v-100h576V2242.3z M1511.5,2232.3h556v-80h-556V2232.3z"/>
				</g>
				<g>
					<radialGradient id="SVGID_15_" cx="2266.9863" cy="1989.8115" r="238.6761" gradientUnits="userSpaceOnUse">
						<stop  offset="0" style="stop-color:#DFD18D"/>
						<stop  offset="0.3817" style="stop-color:#CBA64B"/>
						<stop  offset="1" style="stop-color:#A27632"/>
					</radialGradient>
					<path fill="url(#SVGID_15_)" d="M2133.5,2295.3h-10v-158.1l1.5-1.5l171.9-171.9h86.7v-269.6h-16l2,248.8h-92v-258.8h116v279.6
						h17.1l-17.1,17.1v103.3h-103.3l-37.3,37.3v50.7h16.6v-45.2h76v55.2h-66v14.8h-116.3l79.7-79.7v-43.1h43.1l97.5-97.5v-2.9h-82.5
						l-167.5,167.5V2295.3z M2187.3,2187.1h82.1v-4.8h-26.6v-50.7L2187.3,2187.1z M2279.5,2172.3h56v-35.2h-56V2172.3z
						 M2252.8,2084.3v23.1l23.1-23.1H2252.8z M2300.1,2074.3h83.3V1991L2300.1,2074.3z M2287.5,1933.1h72l-1.9-238.8h-70V1933.1z"/>
				</g>
				<g>
					<radialGradient id="SVGID_16_" cx="2260.8184" cy="1879.3115" r="312.7959" gradientUnits="userSpaceOnUse">
						<stop  offset="0" style="stop-color:#DFD18D"/>
						<stop  offset="0.3817" style="stop-color:#CBA64B"/>
						<stop  offset="1" style="stop-color:#A27632"/>
					</radialGradient>
					<polygon fill="url(#SVGID_16_)" points="2218.5,2285.3 2152.5,2285.3 2152.5,2265.3 2190.4,2265.3 2085.2,1961.8 
						2416.5,2032.9 2416.5,1493.3 2247.8,1493.3 2247.8,1473.3 2436.5,1473.3 2436.5,2057.6 2115.7,1988.8 					"/>
				</g>
				<g>
					<radialGradient id="SVGID_17_" cx="1913.0771" cy="1704.6592" r="468.6235" gradientUnits="userSpaceOnUse">
						<stop  offset="0" style="stop-color:#DFD18D"/>
						<stop  offset="0.3817" style="stop-color:#CBA64B"/>
						<stop  offset="1" style="stop-color:#A27632"/>
					</radialGradient>
					<polygon fill="url(#SVGID_17_)" points="2097,2115.3 1392.9,2115.3 1392.9,2095.3 2088.7,2095.3 2237.8,1946.2 2237.8,1294 
						2433.3,1476 2419.6,1490.6 2257.8,1340 2257.8,1954.5 					"/>
				</g>
			</g>
			<g>
				<g>
					<radialGradient id="SVGID_18_" cx="1732.9043" cy="2187.9385" r="317.5408" gradientUnits="userSpaceOnUse">
						<stop  offset="0" style="stop-color:#DFD18D"/>
						<stop  offset="0.3817" style="stop-color:#CBA64B"/>
						<stop  offset="1" style="stop-color:#A27632"/>
					</radialGradient>
					<path fill="url(#SVGID_18_)" d="M2109.5,2334.3h-662v-174h30v-108.7h-159.1v243.7h-10v-253.7h179.1v118.7h585v10h-585v120h612
						v-40h58v50h-48V2334.3z M1457.5,2324.3h642v-24h-622v-130h-20V2324.3z M2109.5,2290.3h38v-30h-38V2290.3z"/>
				</g>
				<g>
					<radialGradient id="SVGID_19_" cx="1732.9043" cy="2187.9385" r="317.5408" gradientUnits="userSpaceOnUse">
						<stop  offset="0" style="stop-color:#DFD18D"/>
						<stop  offset="0.3817" style="stop-color:#CBA64B"/>
						<stop  offset="1" style="stop-color:#A27632"/>
					</radialGradient>
					<path fill="url(#SVGID_19_)" d="M2109.5,2334.3h-662v-174h30v-108.7h-159.1v243.7h-10v-253.7h179.1v118.7h585v10h-585v120h612
						v-40h58v50h-48V2334.3z M1457.5,2324.3h642v-24h-622v-130h-20V2324.3z M2109.5,2290.3h38v-30h-38V2290.3z"/>
				</g>
				<g>
					<radialGradient id="SVGID_20_" cx="919.3696" cy="1834.8115" r="409.3328" gradientUnits="userSpaceOnUse">
						<stop  offset="0" style="stop-color:#DFD18D"/>
						<stop  offset="0.3817" style="stop-color:#CBA64B"/>
						<stop  offset="1" style="stop-color:#A27632"/>
					</radialGradient>
					<polygon fill="url(#SVGID_20_)" points="1373.1,2194.3 673.5,2194.3 465.6,1986.5 465.6,1475.3 475.6,1475.3 475.6,1982.3 
						677.6,2184.3 1373.1,2184.3 					"/>
				</g>
				<g>
					<radialGradient id="SVGID_21_" cx="1010.5498" cy="2192.3115" r="206.693" gradientUnits="userSpaceOnUse">
						<stop  offset="0" style="stop-color:#DFD18D"/>
						<stop  offset="0.3817" style="stop-color:#CBA64B"/>
						<stop  offset="1" style="stop-color:#A27632"/>
					</radialGradient>
					<path fill="url(#SVGID_21_)" d="M1298.5,2242.3h-576v-100h576V2242.3z M732.5,2232.3h556v-80h-556V2232.3z"/>
				</g>
				<g>
					<radialGradient id="SVGID_22_" cx="1067.0957" cy="2187.9385" r="317.5408" gradientUnits="userSpaceOnUse">
						<stop  offset="0" style="stop-color:#DFD18D"/>
						<stop  offset="0.3817" style="stop-color:#CBA64B"/>
						<stop  offset="1" style="stop-color:#A27632"/>
					</radialGradient>
					<path fill="url(#SVGID_22_)" d="M1352.5,2334.3h-662v-34h-48v-50h58v40h612v-120h-585v-10h585v-118.7h179.1v253.7h-10v-243.7
						h-159.1v108.7h30V2334.3z M700.5,2324.3h642v-154h-20v130h-622V2324.3z M652.5,2290.3h38v-30h-38V2290.3z"/>
				</g>
				<g>
					<radialGradient id="SVGID_23_" cx="1067.0957" cy="2187.9385" r="317.5408" gradientUnits="userSpaceOnUse">
						<stop  offset="0" style="stop-color:#DFD18D"/>
						<stop  offset="0.3817" style="stop-color:#CBA64B"/>
						<stop  offset="1" style="stop-color:#A27632"/>
					</radialGradient>
					<path fill="url(#SVGID_23_)" d="M1352.5,2334.3h-662v-34h-48v-50h58v40h612v-120h-585v-10h585v-118.7h179.1v253.7h-10v-243.7
						h-159.1v108.7h30V2334.3z M700.5,2324.3h642v-154h-20v130h-622V2324.3z M652.5,2290.3h38v-30h-38V2290.3z"/>
				</g>
				<g>
					<radialGradient id="SVGID_24_" cx="533.0142" cy="1989.8115" r="238.6763" gradientUnits="userSpaceOnUse">
						<stop  offset="0" style="stop-color:#DFD18D"/>
						<stop  offset="0.3817" style="stop-color:#CBA64B"/>
						<stop  offset="1" style="stop-color:#A27632"/>
					</radialGradient>
					<path fill="url(#SVGID_24_)" d="M676.5,2295.3h-10v-153.9l-167.5-167.5h-82.5v2.9l97.5,97.5h43.1v43.1l79.7,79.7H520.5v-14.8
						h-66v-55.2h76v45.2h16.6v-50.7l-37.3-37.3H406.5V1981l-17.1-17.1h17.1v-279.6h116v258.8h-92l2-248.8h-16v269.6h86.7
						l173.3,173.3V2295.3z M530.5,2187.1h82.1l-55.5-55.5v50.7h-26.6V2187.1z M464.5,2172.3h56v-35.2h-56V2172.3z M524,2084.3
						l23.1,23.1v-23.1H524z M416.5,2074.3h83.3l-83.3-83.3V2074.3z M440.6,1933.1h72v-238.8h-70L440.6,1933.1z"/>
				</g>
				<g>
					<radialGradient id="SVGID_25_" cx="539.1821" cy="1879.3115" r="312.796" gradientUnits="userSpaceOnUse">
						<stop  offset="0" style="stop-color:#DFD18D"/>
						<stop  offset="0.3817" style="stop-color:#CBA64B"/>
						<stop  offset="1" style="stop-color:#A27632"/>
					</radialGradient>
					<polygon fill="url(#SVGID_25_)" points="647.5,2285.3 581.5,2285.3 684.3,1988.8 363.5,2057.6 363.5,1473.3 552.2,1473.3 
						552.2,1493.3 383.5,1493.3 383.5,2032.9 714.8,1961.8 609.6,2265.3 647.5,2265.3 					"/>
				</g>
				<g>
					<radialGradient id="SVGID_26_" cx="886.9229" cy="1704.6592" r="468.6235" gradientUnits="userSpaceOnUse">
						<stop  offset="0" style="stop-color:#DFD18D"/>
						<stop  offset="0.3817" style="stop-color:#CBA64B"/>
						<stop  offset="1" style="stop-color:#A27632"/>
					</radialGradient>
					<polygon fill="url(#SVGID_26_)" points="1407.1,2115.3 703,2115.3 542.2,1954.5 542.2,1340 380.4,1490.6 366.7,1476 
						562.2,1294 562.2,1946.2 711.3,2095.3 1407.1,2095.3 					"/>
				</g>
			</g>
			<g>
				<g>
					<radialGradient id="SVGID_27_" cx="1880.6299" cy="965.1885" r="409.3325" gradientUnits="userSpaceOnUse">
						<stop  offset="0" style="stop-color:#DFD18D"/>
						<stop  offset="0.7163" style="stop-color:#CBA64B"/>
						<stop  offset="1" style="stop-color:#A27632"/>
					</radialGradient>
					<polygon fill="url(#SVGID_27_)" points="2334.4,1324.7 2324.4,1324.7 2324.4,817.7 2122.4,615.7 1426.9,615.7 1426.9,605.7 
						2126.5,605.7 2334.4,813.5 					"/>
				</g>
				<g>
					<radialGradient id="SVGID_28_" cx="1789.4502" cy="607.6885" r="206.693" gradientUnits="userSpaceOnUse">
						<stop  offset="0" style="stop-color:#DFD18D"/>
						<stop  offset="0.7163" style="stop-color:#CBA64B"/>
						<stop  offset="1" style="stop-color:#A27632"/>
					</radialGradient>
					<path fill="url(#SVGID_28_)" d="M2077.5,657.7h-576v-100h576V657.7z M1511.5,647.7h556v-80h-556V647.7z"/>
				</g>
				<g>
					<radialGradient id="SVGID_29_" cx="1732.9043" cy="612.0615" r="317.5409" gradientUnits="userSpaceOnUse">
						<stop  offset="0" style="stop-color:#DFD18D"/>
						<stop  offset="0.7163" style="stop-color:#CBA64B"/>
						<stop  offset="1" style="stop-color:#A27632"/>
					</radialGradient>
					<path fill="url(#SVGID_29_)" d="M1487.5,758.4h-179.1V504.7h10v243.7h159.1V639.7h-30v-174h662v34h48v50h-58v-40h-612v120h585
						v10h-585V758.4z M1457.5,629.7h20v-130h622v-24h-642V629.7z M2109.5,539.7h38v-30h-38V539.7z"/>
				</g>
				<g>
					<radialGradient id="SVGID_30_" cx="1732.9043" cy="612.0615" r="317.5409" gradientUnits="userSpaceOnUse">
						<stop  offset="0" style="stop-color:#DFD18D"/>
						<stop  offset="0.7163" style="stop-color:#CBA64B"/>
						<stop  offset="1" style="stop-color:#A27632"/>
					</radialGradient>
					<path fill="url(#SVGID_30_)" d="M1487.5,758.4h-179.1V504.7h10v243.7h159.1V639.7h-30v-174h662v34h48v50h-58v-40h-612v120h585
						v10h-585V758.4z M1457.5,629.7h20v-130h622v-24h-642V629.7z M2109.5,539.7h38v-30h-38V539.7z"/>
				</g>
				<g>
					<radialGradient id="SVGID_31_" cx="2266.9863" cy="810.1885" r="238.6761" gradientUnits="userSpaceOnUse">
						<stop  offset="0" style="stop-color:#DFD18D"/>
						<stop  offset="0.7163" style="stop-color:#CBA64B"/>
						<stop  offset="1" style="stop-color:#A27632"/>
					</radialGradient>
					<path fill="url(#SVGID_31_)" d="M2393.5,1115.7h-116V856.9h92l-2,248.8h16V836.1h-86.7l-173.3-173.3V504.7h10v153.9
						l167.5,167.5h82.5v-2.9l-97.5-97.5h-43.1v-43.1l-79.7-79.7h116.3v14.8h66v55.2h-76v-45.2h-16.6v50.7l37.3,37.3h103.3V819
						l17.1,17.1h-17.1V1115.7z M2287.5,1105.7h70l1.9-238.8h-72V1105.7z M2300.1,725.7l83.3,83.3v-83.3H2300.1z M2252.8,715.7h23.1
						l-23.1-23.1V715.7z M2187.3,612.9l55.5,55.5v-50.7h26.6v-4.8H2187.3z M2279.5,662.9h56v-35.2h-56V662.9z"/>
				</g>
				<g>
					<radialGradient id="SVGID_32_" cx="2260.8184" cy="920.6885" r="312.7959" gradientUnits="userSpaceOnUse">
						<stop  offset="0" style="stop-color:#DFD18D"/>
						<stop  offset="0.7163" style="stop-color:#CBA64B"/>
						<stop  offset="1" style="stop-color:#A27632"/>
					</radialGradient>
					<polygon fill="url(#SVGID_32_)" points="2436.5,1326.7 2247.8,1326.7 2247.8,1306.7 2416.5,1306.7 2416.5,767.1 2085.2,838.2 
						2190.4,534.7 2152.5,534.7 2152.5,514.7 2218.5,514.7 2115.7,811.2 2436.5,742.4 					"/>
				</g>
				<g>
					<radialGradient id="SVGID_33_" cx="1913.0771" cy="1095.3408" r="468.6235" gradientUnits="userSpaceOnUse">
						<stop  offset="0" style="stop-color:#DFD18D"/>
						<stop  offset="0.7163" style="stop-color:#CBA64B"/>
						<stop  offset="1" style="stop-color:#A27632"/>
					</radialGradient>
					<polygon fill="url(#SVGID_33_)" points="2237.8,1506 2237.8,853.8 2088.7,704.7 1392.9,704.7 1392.9,684.7 2097,684.7 
						2257.8,845.5 2257.8,1460 2419.6,1309.4 2433.3,1324 					"/>
				</g>
				<g>
					<radialGradient id="SVGID_34_" cx="1067.0957" cy="612.0615" r="317.5409" gradientUnits="userSpaceOnUse">
						<stop  offset="0" style="stop-color:#DFD18D"/>
						<stop  offset="0.7163" style="stop-color:#CBA64B"/>
						<stop  offset="1" style="stop-color:#A27632"/>
					</radialGradient>
					<path fill="url(#SVGID_34_)" d="M1491.6,758.4h-179.1V639.7h-585v-10h585v-120h-612v40h-58v-50h48v-34h662v174h-30v108.7h159.1
						V504.7h10V758.4z M1322.5,629.7h20v-154h-642v24h622V629.7z M652.5,539.7h38v-30h-38V539.7z"/>
				</g>
			</g>
		</g>
		<g>
			<text transform="matrix(1 0 0 1 814.5493 1248.377)" fill="#FFE474" font-family="'PoiretOne-Regular'" font-size="263.3644">ART DECO</text>
			<g>
				<text transform="matrix(1 0 0 1 789.0947 1704.6592)"><tspan x="0" y="0" fill="#FFE474" font-family="'PoiretOne-Regular'" font-size="48.0034" letter-spacing="-5">L</tspan><tspan x="12" y="0" fill="#FFE474" font-family="'PoiretOne-Regular'" font-size="48.0034">OREM IPSUM DO</tspan><tspan x="360.4" y="0" fill="#FFE474" font-family="'PoiretOne-Regular'" font-size="48.0034" letter-spacing="-5">L</tspan><tspan x="372.4" y="0" fill="#FFE474" font-family="'PoiretOne-Regular'" font-size="48.0034">OR SIT AME</tspan><tspan x="621.2" y="0" fill="#FFE474" font-family="'PoiretOne-Regular'" font-size="48.0034" letter-spacing="-4">T</tspan><tspan x="636.9" y="0" fill="#FFE474" font-family="'PoiretOne-Regular'" font-size="48.0034">, CONSECTETUR ADIPISCING </tspan><tspan x="-91.7" y="57.6" fill="#FFE474" font-family="'PoiretOne-Regular'" font-size="48.0034">ELI</tspan><tspan x="-47.4" y="57.6" fill="#FFE474" font-family="'PoiretOne-Regular'" font-size="48.0034" letter-spacing="-4">T</tspan><tspan x="-31.6" y="57.6" fill="#FFE474" font-family="'PoiretOne-Regular'" font-size="48.0034">. INTEGER NEC ODI</tspan><tspan x="340.7" y="57.6" fill="#FFE474" font-family="'PoiretOne-Regular'" font-size="48.0034" letter-spacing="-5">O</tspan><tspan x="376.5" y="57.6" fill="#FFE474" font-family="'PoiretOne-Regular'" font-size="48.0034">. PRAESENT LIBER</tspan><tspan x="690.6" y="57.6" fill="#FFE474" font-family="'PoiretOne-Regular'" font-size="48.0034" letter-spacing="-5">O</tspan><tspan x="726.4" y="57.6" fill="#FFE474" font-family="'PoiretOne-Regular'" font-size="48.0034">. SED CURSUS ANTE </tspan><tspan x="1137" y="57.6" fill="#FFE474" font-family="'PoiretOne-Regular'" font-size="48.0034" letter-spacing="-3">D</tspan><tspan x="1158.7" y="57.6" fill="#FFE474" font-family="'PoiretOne-Regular'" font-size="48.0034">APIBUS </tspan><tspan x="-63.6" y="115.2" fill="#FFE474" font-family="'PoiretOne-Regular'" font-size="48.0034">DIAM. SED NISI. NULLA QUIS SEM </tspan><tspan x="638.8" y="115.2" fill="#FFE474" font-family="'PoiretOne-Regular'" font-size="48.0034" letter-spacing="-3">A</tspan><tspan x="673.8" y="115.2" fill="#FFE474" font-family="'PoiretOne-Regular'" font-size="48.0034">T NIBH ELEMENTUM IMPERDIE</tspan><tspan x="1246.2" y="115.2" fill="#FFE474" font-family="'PoiretOne-Regular'" font-size="48.0034" letter-spacing="-4">T</tspan><tspan x="1262" y="115.2" fill="#FFE474" font-family="'PoiretOne-Regular'" font-size="48.0034">. </tspan><tspan x="192.3" y="172.8" fill="#FFE474" font-family="'PoiretOne-Regular'" font-size="48.0034">DUIS S</tspan><tspan x="320.1" y="172.8" fill="#FFE474" font-family="'PoiretOne-Regular'" font-size="48.0034" letter-spacing="-3">A</tspan><tspan x="355.3" y="172.8" fill="#FFE474" font-family="'PoiretOne-Regular'" font-size="48.0034">GITTIS IPSUM. PRAESENT M</tspan><tspan x="888.4" y="172.8" fill="#FFE474" font-family="'PoiretOne-Regular'" font-size="48.0034" letter-spacing="-2">A</tspan><tspan x="924.6" y="172.8" fill="#FFE474" font-family="'PoiretOne-Regular'" font-size="48.0034">URIS. </tspan></text>
			</g>
			<radialGradient id="SVGID_35_" cx="1396.3779" cy="980.6885" r="412.3086" gradientUnits="userSpaceOnUse">
				<stop  offset="0" style="stop-color:#DFD18D"/>
				<stop  offset="0.7487" style="stop-color:#CBA64B"/>
			</radialGradient>
			<path fill="url(#SVGID_35_)" d="M1978.2,980.3l-403.2-1.4V966h-149.6v12.4l-1.1,0v-23.3h154.9v10.3h16.3v-14.3h-12.3v-8.7h-171.7
				v36l-4.6,0l0,4l4.6,0v6.2h7.7v26.5h-38.4v-26.5h7.7v-6.2h4.6v-4h-4.6v-36h-171.7v8.7h-12.3v14.3h16.3v-10.3h154.9v23.3h-1.1V966
				H1225v12.3H814.5v4H1225v10.8h149.6v-4.6h1.1v30.5h1.1h46.4h1.1v-30.5h1.1v4.6H1575v-10.2l403.2,1.4L1978.2,980.3z M1216.8,961.4
				h-8.3v-6.3h8.3V961.4z M1384.5,984.5h-3.7v-2.2h3.7V984.5z M1220.8,946.3h163.7v32h-3.7v-27.3h-160V946.3z M1229,970h141.6v8.3
				H1229V970z M1370.6,982.3v2.2H1229v-2.2H1370.6z M1370.6,989.1H1229v-0.6h141.6V989.1z M1374.6,984.5v-2.2h1.1v2.2H1374.6z
				 M1429.4,970H1571v8.9l-141.6-0.5V970z M1583.2,955.1h8.3v6.3h-8.3V955.1z M1415.5,946.3h163.7v4.7h-160v27.3l-3.7,0V946.3z
				 M1415.5,984.5v-2.1l3.7,0v2.1H1415.5z M1424.3,984.5v-2.1l1.1,0v2.1H1424.3z M1429.4,989.1v-0.6H1571v0.6H1429.4z M1571,984.5
				h-141.6v-2.1l141.6,0.5V984.5z"/>
			<radialGradient id="SVGID_36_" cx="1396.3779" cy="1519.6738" r="412.3086" gradientUnits="userSpaceOnUse">
				<stop  offset="0" style="stop-color:#DFD18D"/>
				<stop  offset="0.7487" style="stop-color:#CBA64B"/>
			</radialGradient>
			<path fill="url(#SVGID_36_)" d="M1579.2,1545.3h-154.9V1522l1.1,0v12.4H1575v-12.9l403.2-1.4l0-4l-403.2,1.4v-10.2h-149.6v4.6
				h-1.1v-30.5h-1.1h-46.4h-1.1v30.5h-1.1v-4.6H1225v10.8H814.5v4H1225v12.3h149.6V1522h1.1v23.3h-154.9V1535h-16.3v14.3h12.3v8.7
				h171.7v-36h4.6v-4h-4.6v-6.2h-7.7v-26.5h38.4v26.5h-7.7v6.2l-4.6,0l0,4l4.6,0v36h171.7v-8.7h12.3V1535h-16.3V1545.3z
				 M1370.6,1511.2v0.6H1229v-0.6H1370.6z M1229,1515.9h141.6v2.2H1229V1515.9z M1370.6,1530.4H1229v-8.3h141.6V1530.4z
				 M1374.6,1518v-2.2h1.1v2.2H1374.6z M1216.8,1545.3h-8.3v-6.3h8.3V1545.3z M1384.5,1554h-163.7v-4.7h160V1522h3.7V1554z
				 M1384.5,1515.9v2.2h-3.7v-2.2H1384.5z M1571,1530.4h-141.6v-8.4l141.6-0.5V1530.4z M1429.4,1517.9v-2.1H1571v1.6L1429.4,1517.9z
				 M1429.4,1511.2H1571v0.6h-141.6V1511.2z M1425.4,1515.9v2.1l-1.1,0v-2.1H1425.4z M1415.5,1515.9h3.7v2.1l-3.7,0V1515.9z
				 M1579.2,1554h-163.7v-32l3.7,0v27.3h160V1554z M1583.2,1539h8.3v6.3h-8.3V1539z"/>
			<text transform="matrix(1 0 0 1 1142.3726 1400)"><tspan x="0" y="0" fill="#FFE474" font-family="'PoiretOne-Regular'" font-size="103.1871">vintage </tspan><tspan x="352.9" y="0" fill="#FFE474" font-family="'PoiretOne-Regular'" font-size="103.1871" letter-spacing="-4">l</tspan><tspan x="374.7" y="0" fill="#FFE474" font-family="'PoiretOne-Regular'" font-size="103.1871">abel</tspan></text>
		</g>
	</g>
</g>
</svg>
